<svg xmlns="http://www.w3.org/2000/svg" xmlns:xlink="http://www.w3.org/1999/xlink" width="24" height="24" preserveAspectRatio="xMidYMid meet" viewBox="0 0 24 24" style="-ms-transform: rotate(360deg); -webkit-transform: rotate(360deg); transform: rotate(360deg);"><defs><path id="IconifyId-179c2a053be-18d017-17306" d="M-22 2.24h42V22h-42z"/></defs><clipPath id="IconifyId-179c2a053be-18d017-17307"><use xlink:href="#IconifyId-179c2a053be-18d017-17306" overflow="visible"/></clipPath><path clip-path="url(#IconifyId-179c2a053be-18d017-17307)" d="M16.543 8.028c-.023 1.503-.523 3.538-2.867 4.327c.734-1.746.846-3.417.326-4.979c-.695-2.097-3.014-3.735-4.557-4.627c-.527-.306-1.203.074-1.193.683c.02 1.112-.318 2.737-1.959 4.378C4.107 9.994 3 12.251 3 14.517C3 17.362 5 21 9 21c-4.041-4.041-1-7.483-1-7.483C8.846 19.431 12.988 21 15 21c1.711 0 5-1.25 5-6.448c0-3.133-1.332-5.511-2.385-6.899c-.347-.458-1.064-.198-1.072.375" fill="orange"/><rect x="0" y="0" width="24" height="24" fill="rgba(0, 0, 0, 0)" /></svg>